<svg width="36" height="36" viewBox="0 0 36 36" fill="none" xmlns="http://www.w3.org/2000/svg">
<path d="M26.1498 14.6448C26.1612 14.8048 26.1612 14.9648 26.1612 15.1247C26.1612 20.0035 22.4493 25.625 15.665 25.625C13.5749 25.625 11.6333 25.0194 10 23.9683C10.297 24.0025 10.5825 24.014 10.8909 24.014C12.6155 24.014 14.2031 23.4313 15.4708 22.4372C13.849 22.4029 12.4898 21.3403 12.0216 19.8778C12.25 19.9121 12.4784 19.9349 12.7183 19.9349C13.0495 19.9349 13.3807 19.8892 13.6891 19.8093C11.9987 19.4665 10.7309 17.9811 10.7309 16.1873V16.1416C11.222 16.4158 11.7932 16.5872 12.3984 16.61C11.4048 15.9473 10.7538 14.8162 10.7538 13.5365C10.7538 12.851 10.9365 12.2225 11.2563 11.6741C13.0723 13.9136 15.802 15.376 18.8629 15.536C18.8058 15.2618 18.7716 14.9762 18.7716 14.6905C18.7716 12.6567 20.4162 11 22.4607 11C23.5228 11 24.4822 11.4456 25.1561 12.1654C25.9898 12.0055 26.7893 11.697 27.4975 11.2742C27.2233 12.1312 26.6409 12.851 25.8756 13.308C26.618 13.2281 27.3376 13.0223 28 12.7367C27.4975 13.468 26.8693 14.1192 26.1498 14.6448V14.6448Z" fill="white"/>
<circle cx="18" cy="18" r="17.5" stroke="white"/>
</svg>
