<svg width="91" height="101" viewBox="0 0 91 101" fill="none" xmlns="http://www.w3.org/2000/svg">
<path d="M33.2051 48.7365L47.0274 27.9581L62.8629 30.3321L53.6097 43.5693L68.6512 45.4326L23.2789 81.8509L45.7607 50.053L33.2051 48.7365Z" stroke="white"/>
<circle cx="45.4545" cy="55.5455" r="44.9545" stroke="white"/>
<path d="M37.5 11.2273V5C37.5 2.79086 39.2909 1 41.5 1H49.4091C51.6182 1 53.4091 2.79086 53.4091 5V11.2273" stroke="white"/>
<path d="M15.1062 21.6746L14.5075 20.7088C13.5155 19.1085 14.0087 17.007 15.609 16.0151V16.0151C17.2093 15.0232 19.3107 15.5163 20.3027 17.1166L20.9014 18.0825" stroke="white"/>
<path d="M75.3247 21.6746L75.9234 20.7088C76.9154 19.1085 76.4222 17.007 74.8219 16.0151V16.0151C73.2216 15.0232 71.1202 15.5163 70.1282 17.1166L69.5295 18.0825" stroke="white"/>
</svg>
