<svg width="100" height="101" viewBox="0 0 100 101" fill="none" xmlns="http://www.w3.org/2000/svg">
<path d="M65.7297 50.9923C65.7297 59.5383 58.732 66.4747 50.0895 66.4747C41.4469 66.4747 34.4492 59.5383 34.4492 50.9923C34.4492 42.4462 41.4469 35.5098 50.0895 35.5098C58.732 35.5098 65.7297 42.4462 65.7297 50.9923Z" stroke="white"/>
<circle cx="50.324" cy="7.41912" r="4.29538" transform="rotate(-54.6196 50.324 7.41912)" stroke="white"/>
<circle cx="6.68656" cy="51.6174" r="4.29538" transform="rotate(-144.62 6.68656 51.6174)" stroke="white"/>
<circle cx="50.6284" cy="94.303" r="4.29538" transform="rotate(125.38 50.6284 94.303)" stroke="white"/>
<circle cx="93.3139" cy="50.3517" r="4.29538" transform="rotate(35.3804 93.3139 50.3517)" stroke="white"/>
<path d="M45.5584 35.9953V26.0478C45.5584 24.391 44.2153 23.0478 42.5584 23.0478H39.804" stroke="white"/>
<path d="M35.2627 56.383L25.3152 56.383C23.6583 56.383 22.3152 57.7261 22.3152 59.383L22.3152 62.1375" stroke="white"/>
<path d="M55.394 65.7269L55.394 75.6745C55.394 77.3313 56.7371 78.6745 58.394 78.6745L61.1484 78.6745" stroke="white"/>
<path d="M64.7378 45.5861L74.6853 45.5861C76.3422 45.5861 77.6853 44.243 77.6853 42.5861L77.6853 39.8316" stroke="white"/>
<line x1="50.3743" y1="11.5389" x2="50.3743" y2="35.5158" stroke="white"/>
<line x1="10.8064" y1="51.5672" x2="34.7833" y2="51.5672" stroke="white"/>
<line x1="50.5781" y1="90.1831" x2="50.5781" y2="66.2062" stroke="white"/>
<line x1="89.1941" y1="50.4019" x2="65.2172" y2="50.4019" stroke="white"/>
<circle cx="55.9907" cy="19.268" r="2.85677" transform="rotate(-54.6196 55.9907 19.268)" stroke="white"/>
<circle cx="18.5356" cy="45.9507" r="2.85677" transform="rotate(-144.62 18.5356 45.9507)" stroke="white"/>
<circle cx="44.9617" cy="82.4541" r="2.85677" transform="rotate(125.38 44.9617 82.4541)" stroke="white"/>
<circle cx="81.4649" cy="56.0184" r="2.85677" transform="rotate(35.3804 81.4649 56.0184)" stroke="white"/>
<circle cx="37.2913" cy="22.9329" r="2.85677" transform="rotate(-54.6196 37.2913 22.9329)" stroke="white"/>
<circle cx="22.2004" cy="64.6501" r="2.85677" transform="rotate(-144.62 22.2004 64.6501)" stroke="white"/>
<circle cx="63.6609" cy="78.7892" r="2.85677" transform="rotate(125.38 63.6609 78.7892)" stroke="white"/>
<circle cx="77.8001" cy="37.319" r="2.85677" transform="rotate(35.3804 77.8001 37.319)" stroke="white"/>
<line x1="56.1287" y1="22.0888" x2="56.1287" y2="36.4749" stroke="white"/>
<line x1="21.3562" y1="45.8127" x2="35.7423" y2="45.8127" stroke="white"/>
<line x1="44.8237" y1="79.6333" x2="44.8237" y2="65.2472" stroke="white"/>
<line x1="78.6443" y1="56.1564" x2="64.2581" y2="56.1564" stroke="white"/>
</svg>
