<svg width="859" height="233" viewBox="0 0 859 233" fill="none" xmlns="http://www.w3.org/2000/svg">
<circle cx="425" cy="113" r="92.5" stroke="white"/>
<circle cx="425" cy="113" r="97.5" stroke="white" stroke-opacity="0.4"/>
<circle cx="425" cy="113" r="107.5" stroke="white" stroke-opacity="0.2"/>
<path d="M471.562 121.816C471.562 132.169 471.562 142.314 471.562 149.789C471.562 167.181 451.674 187.059 451.674 166.146C451.674 156 432.822 155.379 432.822 168.217C432.822 181.261 418.527 181.261 418.527 168.217C418.527 156.415 399.261 152.895 399.261 165.318C399.261 186.23 379.994 169.666 379.994 149.789C379.994 139.25 379.994 130.409 379.994 121.65" stroke="white" stroke-miterlimit="10"/>
<path d="M380.077 92.7454C381.631 68.872 401.498 48.7463 425.778 48.7463C450.266 48.7463 470.278 68.5821 471.5 92.7661" stroke="white" stroke-miterlimit="10"/>
<path d="M471.562 92.6418C475.913 86.8442 492.693 89.1218 483.578 103.616C474.463 118.109 471.562 121.836 471.562 121.836" stroke="white" stroke-miterlimit="10"/>
<path d="M380.015 92.6418C375.664 86.8442 359.091 89.1218 368.206 103.616C377.322 118.109 380.015 121.836 380.015 121.836" stroke="white" stroke-miterlimit="10"/>
<circle cx="201.461" cy="47.4606" r="28.5" transform="rotate(-12.2956 201.461 47.4606)" stroke="white"/>
<circle cx="201.461" cy="47.4606" r="33.5" transform="rotate(-12.2956 201.461 47.4606)" stroke="white"/>
<path d="M213.905 47.1353C214.481 49.776 215.045 52.3639 215.461 54.2705C216.428 58.7069 212.46 64.8828 211.297 59.5485C210.733 56.9606 205.89 57.8502 206.603 61.1247C207.329 64.452 203.682 65.2467 202.957 61.9194C202.301 58.909 197.191 59.0823 197.882 62.2512C199.044 67.5854 193.209 64.4314 192.104 59.3612C191.518 56.6729 191.026 54.4178 190.54 52.1837" stroke="white" stroke-miterlimit="10"/>
<path d="M188.954 44.8062C188.023 38.6303 191.972 32.3922 198.165 31.0424C204.411 29.681 210.618 33.6281 212.275 39.7288" stroke="white" stroke-miterlimit="10"/>
<path d="M212.284 39.6937C213.071 37.973 217.478 37.6211 215.959 41.8248C214.439 46.0286 213.907 47.1405 213.907 47.1405" stroke="white" stroke-miterlimit="10"/>
<path d="M188.932 44.7833C187.5 43.5464 183.399 45.0487 186.53 48.2389C189.661 51.4292 190.555 52.2301 190.555 52.2301" stroke="white" stroke-miterlimit="10"/>
<circle cx="140.335" cy="194.335" r="22.814" transform="rotate(-52.3885 140.335 194.335)" stroke="white"/>
<circle cx="140.335" cy="194.335" r="26.8337" transform="rotate(-52.3885 140.335 194.335)" stroke="white"/>
<path d="M147.82 187.691C149.541 189.017 151.228 190.317 152.471 191.274C155.362 193.502 156.12 199.355 152.643 196.676C150.956 195.376 148.438 198.431 150.572 200.075C152.741 201.746 150.91 204.123 148.741 202.452C146.779 200.94 143.726 203.693 145.791 205.284C149.268 207.963 144.046 209.044 140.742 206.498C138.99 205.148 137.52 204.016 136.063 202.894" stroke="white" stroke-miterlimit="10"/>
<path d="M131.268 199.178C127.498 195.861 126.697 189.98 129.807 185.944C132.943 181.873 138.805 181.086 142.982 183.981" stroke="white" stroke-miterlimit="10"/>
<path d="M142.969 183.954C142.563 182.488 145.091 179.99 146.333 183.362C147.575 186.734 147.823 187.694 147.823 187.694" stroke="white" stroke-miterlimit="10"/>
<path d="M131.243 199.175C129.722 199.155 127.978 202.203 131.555 202.544C135.132 202.885 136.097 202.914 136.097 202.914" stroke="white" stroke-miterlimit="10"/>
<circle cx="246.414" cy="149.413" r="18.6048" transform="rotate(-52.3885 246.414 149.413)" stroke="white"/>
<circle cx="246.414" cy="149.414" r="21.8987" transform="rotate(-52.3885 246.414 149.414)" stroke="white"/>
<path d="M252.547 143.969C253.958 145.056 255.34 146.121 256.358 146.906C258.728 148.731 259.348 153.527 256.499 151.332C255.117 150.267 253.054 152.77 254.803 154.118C256.58 155.487 255.079 157.435 253.302 156.065C251.694 154.827 249.192 157.082 250.885 158.386C253.734 160.581 249.455 161.467 246.747 159.381C245.311 158.275 244.107 157.347 242.913 156.427" stroke="white" stroke-miterlimit="10"/>
<path d="M238.984 153.382C235.895 150.665 235.238 145.845 237.786 142.538C240.357 139.201 245.16 138.557 248.583 140.929" stroke="white" stroke-miterlimit="10"/>
<path d="M248.572 140.907C248.239 139.706 250.311 137.659 251.329 140.422C252.347 143.185 252.55 143.972 252.55 143.972" stroke="white" stroke-miterlimit="10"/>
<path d="M238.963 153.38C237.717 153.364 236.288 155.861 239.219 156.14C242.15 156.42 242.941 156.444 242.941 156.444" stroke="white" stroke-miterlimit="10"/>
<circle cx="68.577" cy="75.8402" r="21.0489" transform="rotate(12.7315 68.577 75.8402)" stroke="white"/>
<circle cx="68.577" cy="75.8403" r="24.7642" transform="rotate(12.7315 68.577 75.8403)" stroke="white"/>
<path d="M77.0585 79.5331C76.6159 81.492 76.1822 83.4118 75.8626 84.8261C75.1191 88.1171 70.5061 91.028 71.4001 87.0709C71.8339 85.1512 68.2932 84.2277 67.7444 86.6568C67.1868 89.125 64.482 88.5139 65.0396 86.0457C65.5442 83.8125 62.0491 82.3228 61.518 84.6735C60.624 88.6305 57.6865 84.6726 58.5363 80.9114C58.9869 78.9173 59.3648 77.2443 59.7393 75.5871" stroke="white" stroke-miterlimit="10"/>
<path d="M60.9906 70.1212C62.3052 65.6704 66.9248 62.7116 71.5191 63.7496C76.1525 64.7965 79.0912 69.4053 78.2886 74.0336" stroke="white" stroke-miterlimit="10"/>
<path d="M78.3057 74.0128C79.3767 73.1018 82.4545 74.2502 80.1101 76.603C77.7657 78.9558 77.0575 79.537 77.0575 79.537" stroke="white" stroke-miterlimit="10"/>
<path d="M60.9834 70.099C60.408 68.816 57.1747 68.5385 58.2798 71.6707C59.385 74.8028 59.7353 75.6232 59.7353 75.6232" stroke="white" stroke-miterlimit="10"/>
<circle r="28.5" transform="matrix(-0.953267 0.302128 0.302128 0.953267 609.46 143.461)" stroke="white"/>
<circle r="33.5" transform="matrix(-0.953267 0.302128 0.302128 0.953267 609.46 143.461)" stroke="white"/>
<path d="M598.508 149.378C599.324 151.955 600.125 154.48 600.714 156.34C602.086 160.668 608.603 164.046 606.954 158.842C606.154 156.317 610.796 154.676 611.809 157.87C612.838 161.117 616.395 159.989 615.366 156.743C614.435 153.806 618.952 151.41 619.932 154.502C621.582 159.706 625.07 154.064 623.502 149.118C622.671 146.495 621.974 144.295 621.283 142.115" stroke="white" stroke-miterlimit="10"/>
<path d="M618.982 134.928C616.712 129.109 610.181 125.668 604.138 127.583C598.044 129.514 594.629 136.029 596.232 142.144" stroke="white" stroke-miterlimit="10"/>
<path d="M596.207 142.118C594.667 141.019 590.67 142.909 594.082 145.797C597.494 148.685 598.509 149.384 598.509 149.384" stroke="white" stroke-miterlimit="10"/>
<path d="M618.989 134.897C619.615 133.112 623.919 132.371 622.794 136.697C621.668 141.023 621.292 142.163 621.292 142.163" stroke="white" stroke-miterlimit="10"/>
<circle r="17.8263" transform="matrix(-0.768398 -0.639972 -0.639972 0.768398 737.898 133.569)" stroke="white"/>
<circle r="20.986" transform="matrix(-0.768398 -0.639972 -0.639972 0.768398 737.898 133.569)" stroke="white"/>
<path d="M731.017 129.756C729.924 131.068 728.853 132.354 728.064 133.302C726.227 135.507 726.65 140.126 728.858 137.475C729.929 136.189 732.385 138.101 731.029 139.728C729.652 141.382 731.464 142.891 732.841 141.237C734.087 139.741 736.901 141.329 735.59 142.904C733.382 145.555 737.573 145.489 739.672 142.97C740.784 141.634 741.718 140.513 742.643 139.402" stroke="white" stroke-miterlimit="10"/>
<path d="M745.684 135.73C748.007 132.539 747.614 127.89 744.536 125.327C741.432 122.741 736.801 123.143 734.092 126.08" stroke="white" stroke-miterlimit="10"/>
<path d="M734.097 126.057C734.158 124.863 731.79 123.38 731.416 126.18C731.041 128.98 731.015 129.758 731.015 129.758" stroke="white" stroke-miterlimit="10"/>
<path d="M745.703 135.723C746.866 135.447 748.727 137.486 746.041 138.361C743.355 139.236 742.62 139.424 742.62 139.424" stroke="white" stroke-miterlimit="10"/>
<circle r="17.8263" transform="matrix(-0.99964 0.0268167 0.0268167 0.99964 836.26 61.2603)" stroke="white"/>
<circle r="20.986" transform="matrix(-0.99964 0.0268167 0.0268167 0.99964 836.26 61.2603)" stroke="white"/>
<path d="M828.575 62.9409C828.621 64.6482 828.666 66.3214 828.699 67.5541C828.776 70.4224 832.143 73.6126 832.051 70.1637C832.006 68.4905 835.112 68.3047 835.169 70.4218C835.227 72.573 837.584 72.5098 837.527 70.3585C837.474 68.4122 840.636 67.7464 840.691 69.7952C840.784 73.2441 843.888 70.4271 843.8 67.149C843.753 65.4109 843.714 63.9528 843.675 62.5084" stroke="white" stroke-miterlimit="10"/>
<path d="M843.534 57.7419C843.172 53.8116 839.806 50.5804 835.802 50.6878C831.764 50.7962 828.551 54.156 828.457 58.1498" stroke="white" stroke-miterlimit="10"/>
<path d="M828.446 58.1295C827.703 57.1926 824.945 57.6425 826.513 59.9925C828.08 62.3424 828.575 62.9442 828.575 62.9442" stroke="white" stroke-miterlimit="10"/>
<path d="M843.544 57.7245C844.235 56.7491 846.979 57.0514 845.539 59.482C844.1 61.9127 843.673 62.5392 843.673 62.5392" stroke="white" stroke-miterlimit="10"/>
<circle r="16.9021" transform="matrix(-0.797393 -0.60346 -0.60346 0.797393 646.07 48.2794)" stroke="white"/>
<circle r="19.9025" transform="matrix(-0.797393 -0.60346 -0.60346 0.797393 646.07 48.2795)" stroke="white"/>
<path d="M639.375 44.9673C638.396 46.2605 637.437 47.5279 636.73 48.4616C635.086 50.6342 635.691 54.9974 637.668 52.385C638.627 51.1177 641.041 52.8223 639.828 54.4259C638.594 56.0554 640.38 57.4067 641.613 55.7773C642.729 54.303 645.468 55.6847 644.294 57.2366C642.317 59.8489 646.29 59.6011 648.169 57.1181C649.165 55.8016 650.001 54.6972 650.829 53.6031" stroke="white" stroke-miterlimit="10"/>
<path d="M653.551 49.9845C655.614 46.8554 655.035 42.4632 652.002 40.1679C648.943 37.8529 644.568 38.4389 642.129 41.3443" stroke="white" stroke-miterlimit="10"/>
<path d="M642.133 41.3229C642.137 40.1874 639.826 38.8856 639.594 41.5578C639.363 44.2301 639.373 44.9699 639.373 44.9699" stroke="white" stroke-miterlimit="10"/>
<path d="M653.569 49.9775C654.66 49.6646 656.515 51.5159 654.006 52.4647C651.497 53.4135 650.809 53.6244 650.809 53.6244" stroke="white" stroke-miterlimit="10"/>
<line x1="276.5" y1="57" x2="276.5" y2="67" stroke="white"/>
<line x1="176.889" y1="113.054" x2="183.831" y2="120.252" stroke="white"/>
<line x1="741.488" y1="57.6529" x2="748.43" y2="64.8508" stroke="white"/>
<line x1="271" y1="61.5" x2="281" y2="61.5" stroke="white"/>
<line x1="176.054" y1="120.111" x2="183.252" y2="113.169" stroke="white"/>
<line x1="562.488" y1="19.6529" x2="569.43" y2="26.8508" stroke="white"/>
<line x1="561.653" y1="26.7099" x2="568.851" y2="19.768" stroke="white"/>
<line x1="112.488" y1="0.652904" x2="119.43" y2="7.85081" stroke="white"/>
<line x1="111.653" y1="7.70993" x2="118.851" y2="0.768016" stroke="white"/>
<line x1="31.4878" y1="170.653" x2="38.4297" y2="177.851" stroke="white"/>
<line x1="30.6529" y1="177.71" x2="37.8508" y2="170.768" stroke="white"/>
<line x1="1.48782" y1="34.6529" x2="8.42974" y2="41.8508" stroke="white"/>
<line x1="0.652904" y1="41.7099" x2="7.85081" y2="34.768" stroke="white"/>
<line x1="131.488" y1="77.6529" x2="138.43" y2="84.8508" stroke="white"/>
<line x1="130.653" y1="84.7099" x2="137.851" y2="77.768" stroke="white"/>
<line x1="658.488" y1="95.6529" x2="665.43" y2="102.851" stroke="white"/>
<line x1="657.653" y1="102.71" x2="664.851" y2="95.768" stroke="white"/>
<line x1="728.488" y1="183.653" x2="735.43" y2="190.851" stroke="white"/>
<line x1="727.653" y1="190.71" x2="734.851" y2="183.768" stroke="white"/>
<line x1="847.488" y1="112.653" x2="854.43" y2="119.851" stroke="white"/>
<line x1="846.653" y1="119.71" x2="853.851" y2="112.768" stroke="white"/>
<line x1="542.626" y1="198.32" x2="552.33" y2="195.908" stroke="white"/>
<line x1="548.32" y1="202.572" x2="545.907" y2="192.868" stroke="white"/>
<line x1="740.653" y1="64.7099" x2="747.851" y2="57.768" stroke="white"/>
</svg>
