<svg width="803" height="259" viewBox="0 0 803 259" fill="none" xmlns="http://www.w3.org/2000/svg">
<circle cx="141" cy="133" r="59.5" stroke="white" stroke-dasharray="6 4"/>
<circle cx="141" cy="133" r="64.5" stroke="white"/>
<circle cx="141" cy="133" r="92.5" stroke="white"/>
<circle cx="656" cy="133" r="92.5" stroke="white"/>
<circle r="26.5" transform="matrix(-1 0 0 1 141 133)" stroke="white"/>
<circle r="1.5" transform="matrix(-1 0 0 1 141 133)" stroke="white"/>
<path d="M702.563 141.816C702.563 152.169 702.563 162.314 702.563 169.789C702.563 187.182 682.675 207.059 682.675 186.146C682.675 176.001 663.822 175.379 663.822 188.217C663.822 201.261 649.528 201.261 649.528 188.217C649.528 176.415 630.261 172.895 630.261 185.318C630.261 206.231 610.995 189.666 610.995 169.789C610.995 159.25 610.995 150.409 610.995 141.65" stroke="white" stroke-miterlimit="10"/>
<path d="M611.078 112.745C612.631 88.8721 632.499 68.7464 656.779 68.7464C681.266 68.7464 701.278 88.5822 702.501 112.766" stroke="white" stroke-miterlimit="10"/>
<path d="M702.563 112.642C706.913 106.844 723.694 109.122 714.578 123.616C705.463 138.11 702.563 141.836 702.563 141.836" stroke="white" stroke-miterlimit="10"/>
<path d="M611.015 112.642C606.665 106.844 590.092 109.122 599.207 123.616C608.322 138.11 611.015 141.836 611.015 141.836" stroke="white" stroke-miterlimit="10"/>
<path d="M669.5 18.0002C499.5 18.0002 331.5 253.5 148 253.5C-35.4999 253.5 -31.0003 18.0002 136 18.0002C285 18.0002 484 253.5 669.5 253.5C823 253.5 839.5 18.0002 669.5 18.0002Z" stroke="white" stroke-dasharray="10 10"/>
<path d="M246.769 221.117L269.087 223.03L258.305 241.706" stroke="white"/>
<path d="M350.18 164.136L372.567 163.354L364.107 183.19" stroke="white"/>
<path d="M450.026 97.54L472.373 95.9999L464.59 116.111" stroke="white"/>
<path d="M594.426 19.3287L616.089 25.0297L602.273 41.587" stroke="white"/>
<path d="M759.737 34.2552L764.219 56.2029L743.255 51.1474" stroke="white"/>
<path d="M802.006 154.897L785.028 169.509L779.223 148.74" stroke="white"/>
<path d="M725.955 254.502L704.158 249.337L717.562 232.444" stroke="white"/>
<path d="M580.345 251.992L568.406 233.039L589.805 230.37" stroke="white"/>
<path d="M454.114 191.453L445.336 170.845L466.887 171.607" stroke="white"/>
<path d="M306.26 96.7773L295.809 76.9642L317.35 75.9441" stroke="white"/>
<path d="M150.445 29.3323L130.877 18.4293L148.373 5.8226" stroke="white"/>
<path d="M30.9945 92.3778L13.5374 106.415L8.42911 85.4638" stroke="white"/>
<path d="M81.3793 228.386L95.2144 246.003L74.206 250.87" stroke="white"/>
</svg>
